<svg xmlns="http://www.w3.org/2000/svg" width="167" height="43" fill="none"><path fill="#000" fill-rule="evenodd" d="M42.53 21.3A21.26 21.26 0 1 0 0 21.23a21.26 21.26 0 0 0 42.53.09ZM21.32 38.99a17.7 17.7 0 1 1-.03-35.38 17.7 17.7 0 0 1 .03 35.38Zm7.56-17.85a4.7 4.7 0 0 1 2.2-.87h.53v-3.52h-.54a6.89 6.89 0 0 0-3.32 1 20.6 20.6 0 0 1-.19-.56l-.05-.17-.4-1.2-.02-.05c-1.46-4.38-2.83-8.5-5.76-8.5-2.94 0-4.33 4.15-5.79 8.55l-.64 1.93c-1-.62-2.15-.97-3.32-1.02h-.54v3.53h.54c.8.1 1.55.4 2.2.87-1.14 3.3-2.36 6.6-2.94 6.89h-.53v4.18h.5c2.4 0 4.39-3.98 6.19-8.92a8.55 8.55 0 0 0 4.34 1.52 8.56 8.56 0 0 0 4.32-1.53c1.84 5.06 3.8 8.93 6.2 8.93h.54v-3.58l.04-.54h-.54c-.67-.25-1.92-3.68-3.02-6.94Zm-5.58-4.96v.02l.06.18c.23.73.46 1.5.72 2.27l.42 1.27c-.91.74-2.01 1.2-3.18 1.34a6.12 6.12 0 0 1-3.19-1.32l.15-.46.15-.47c.3-.9.57-1.76.82-2.58l.04-.12c.7-2.24 1.56-4.93 2-5.16.5.2 1.33 2.87 2 5.03ZM57.73 35.5V35h-4.47v.5h4.47Zm4.02-6.85v.5h-1.4v5.4h-.5v-5.4h-1.39v-.5h3.3Zm3.82 1.7c-.16-.07-.34-.1-.5-.1h-.66l-.82.57v-2.25h-.5v5.98h.49v-3.12l.98-.67h.5a.79.79 0 0 1 .59.25.8.8 0 0 1 .24.6v2.93h.5v-2.94a1.3 1.3 0 0 0-.4-.96 1.27 1.27 0 0 0-.42-.29Zm4.1-.1a1.28 1.28 0 0 1 1.22.83c.07.17.1.35.1.52v.77h-.06v.05h-2.76v.74a.83.83 0 0 0 .24.6.73.73 0 0 0 .58.24h.66a.73.73 0 0 0 .58-.25.83.83 0 0 0 .24-.6v-.12h.5v.13a1.32 1.32 0 0 1-.39.95 1.24 1.24 0 0 1-.93.4H69a1.24 1.24 0 0 1-.93-.4 1.32 1.32 0 0 1-.39-.95v-1.56A1.32 1.32 0 0 1 69 30.24h.68Zm.82 1.35a.82.82 0 0 0-.5-.78.8.8 0 0 0-.32-.06H69a.8.8 0 0 0-.77.52.82.82 0 0 0-.06.32v.4h2.3v-.4Zm6.93 1.58h-.5v.31a.97.97 0 0 0 .37.74c.25.21.57.32.9.31h.74c.33.02.66-.09.93-.3a1.02 1.02 0 0 0 .34-.8c.01-.3-.09-.58-.28-.8-.18-.2-.42-.35-.68-.44a12.2 12.2 0 0 0-.8-.22 2.65 2.65 0 0 1-.69-.26.48.48 0 0 1-.08-.82c.15-.1.34-.16.53-.15h.66c.18 0 .35.06.5.17a.51.51 0 0 1 .2.41v.16h.5v-.16a1 1 0 0 0-.36-.73 1.2 1.2 0 0 0-.84-.32h-.66c-.32-.01-.63.09-.88.29a.95.95 0 0 0-.34.73.87.87 0 0 0 .28.7c.2.17.43.3.68.37l.81.2c.25.07.48.17.68.32a.67.67 0 0 1 .28.55.51.51 0 0 1-.2.44.9.9 0 0 1-.58.16h-.74a.9.9 0 0 1-.55-.16.49.49 0 0 1-.22-.4v-.3Zm6.1 1.37h-.66a1.26 1.26 0 0 1-.93-.4 1.32 1.32 0 0 1-.4-.95v-1.6a1.32 1.32 0 0 1 1.33-1.35h.66a1.28 1.28 0 0 1 1.22.83c.07.17.1.35.1.52v1.6c0 .36-.14.7-.38.96a1.28 1.28 0 0 1-.94.4Zm0-.51a.8.8 0 0 0 .58-.24.84.84 0 0 0 .24-.6v-1.6a.85.85 0 0 0-.24-.6.8.8 0 0 0-.58-.24h-.66a.8.8 0 0 0-.59.24.82.82 0 0 0-.23.6v1.6a.82.82 0 0 0 .24.6.78.78 0 0 0 .58.24h.66Zm5.93-3.79h-.5v3.12l-.97.67h-.5a.78.78 0 0 1-.59-.24.8.8 0 0 1-.24-.6v-2.93h-.5v2.93a1.3 1.3 0 0 0 .4.95 1.25 1.25 0 0 0 .93.4h.66l.82-.57v.57h.49v-4.3Zm3.3 0a1.27 1.27 0 0 1 .93.4 1.32 1.32 0 0 1 .39.95v2.94h-.5v-2.94a.78.78 0 0 0-.24-.6.73.73 0 0 0-.58-.24h-.51l-.97.67v3.12h-.5v-4.3h.5v.57l.81-.57h.67Zm5.94-1.68h-.5v2.24l-.81-.56h-.67a1.27 1.27 0 0 0-.93.4 1.32 1.32 0 0 0-.4.95v1.6a1.32 1.32 0 0 0 .4.95 1.25 1.25 0 0 0 .93.4h.67l.8-.56v.56h.5v-5.98Zm-.5 4.8-.97.67h-.51a.73.73 0 0 1-.58-.24.79.79 0 0 1-.25-.6v-1.6a.79.79 0 0 1 .25-.6.73.73 0 0 1 .58-.24h.51l.97.66v1.95Zm8.4-3.12a1.29 1.29 0 0 1 1.24.83c.06.17.1.35.09.52v.77h-.05v.05h-2.75v.74a.84.84 0 0 0 .24.6.73.73 0 0 0 .58.24h.66a.73.73 0 0 0 .58-.25.83.83 0 0 0 .24-.6v-.12h.5v.13a1.32 1.32 0 0 1-.39.95 1.24 1.24 0 0 1-.93.4h-.66a1.24 1.24 0 0 1-.93-.4 1.33 1.33 0 0 1-.39-.95v-1.56a1.3 1.3 0 0 1 .39-.96 1.28 1.28 0 0 1 .93-.39h.66Zm.83 1.35a.84.84 0 0 0-.23-.6.8.8 0 0 0-.6-.24h-.65a.8.8 0 0 0-.59.24.85.85 0 0 0-.23.6v.4h2.3v-.4Zm3.76.8 1.36-2.15-.59-.03-1.06 1.7-1.03-1.67h-.58l1.35 2.15-1.35 2.15h.58l1.07-1.69 1.06 1.7h.55l-1.36-2.16Zm4.65-2.15a1.25 1.25 0 0 1 .93.4 1.3 1.3 0 0 1 .4.95v1.6a1.29 1.29 0 0 1-.4.95 1.25 1.25 0 0 1-.93.4h-.67l-.81-.56v2.32h-.5v-6.06h.5v.57l.81-.57h.67Zm.83 2.94v-1.59a.8.8 0 0 0-.24-.6.79.79 0 0 0-.59-.24h-.5l-.98.67v1.95l.98.67h.5a.8.8 0 0 0 .59-.25.82.82 0 0 0 .24-.6v-.01Zm5.13.85h-1.46l.02-5.47h-1.86v.5h1.37v4.97h-1.37v.51h3.3v-.5Zm3.28.51h-.66a1.25 1.25 0 0 1-.93-.4 1.29 1.29 0 0 1-.39-.95v-1.6a1.3 1.3 0 0 1 .39-.96 1.26 1.26 0 0 1 .93-.39h.66a1.27 1.27 0 0 1 .93.4 1.3 1.3 0 0 1 .38.95v1.6a1.32 1.32 0 0 1-1.31 1.35Zm0-.51a.78.78 0 0 0 .58-.24.83.83 0 0 0 .24-.6v-1.6a.8.8 0 0 0-.24-.6.77.77 0 0 0-.58-.24h-.66a.8.8 0 0 0-.59.24.81.81 0 0 0-.24.6v1.6a.82.82 0 0 0 .83.84h.66Zm5.12-3.69c-.16-.07-.33-.1-.5-.1h-.26l-1.2.83v-.83h-.5v4.3h.5v-2.86l1.36-.92h.1a.73.73 0 0 1 .57.25.78.78 0 0 1 .25.6v.3h.5v-.32a1.32 1.32 0 0 0-.82-1.25Zm4.11-.1a1.25 1.25 0 0 1 .93.4 1.32 1.32 0 0 1 .4.95v.77h-.05v.05h-2.77v.74a.81.81 0 0 0 .25.6.74.74 0 0 0 .58.24h.66a.73.73 0 0 0 .58-.25.83.83 0 0 0 .24-.6v-.12h.5v.13a1.3 1.3 0 0 1-.39.95 1.24 1.24 0 0 1-.93.4h-.66a1.23 1.23 0 0 1-.93-.4 1.33 1.33 0 0 1-.39-.95v-1.56a1.3 1.3 0 0 1 .39-.96 1.28 1.28 0 0 1 .93-.39h.66Zm.82 1.35a.85.85 0 0 0-.23-.6.8.8 0 0 0-.59-.24h-.66a.8.8 0 0 0-.58.24.83.83 0 0 0-.25.6v.4h2.31v-.4Zm4.3-1.25c-.16-.07-.33-.1-.5-.1h-.31l-1.2.83v-.83h-.5v4.3h.52v-2.86l1.35-.92h.13a.78.78 0 0 1 .59.25.81.81 0 0 1 .24.6v.3h.5v-.32a1.3 1.3 0 0 0-.4-.96 1.26 1.26 0 0 0-.42-.29Zm2.13 2.83h.5v.3a.49.49 0 0 0 .23.4c.16.11.35.17.54.16h.74a.9.9 0 0 0 .57-.16.52.52 0 0 0 .2-.44.64.64 0 0 0-.28-.55c-.2-.15-.43-.26-.67-.31l-.8-.21c-.26-.07-.5-.2-.69-.38a.88.88 0 0 1-.28-.69.97.97 0 0 1 .33-.73c.25-.2.57-.3.89-.29h.66a1.2 1.2 0 0 1 1.1.65 1 1 0 0 1 .1.4v.16h-.5v-.16a.51.51 0 0 0-.2-.4.74.74 0 0 0-.5-.18h-.66a.84.84 0 0 0-.54.15.49.49 0 0 0 .1.82c.2.12.44.2.67.26.27.06.54.14.8.22.27.09.5.24.7.44.18.22.28.5.27.8a1.02 1.02 0 0 1-.34.8c-.27.21-.6.32-.94.3h-.73a1.32 1.32 0 0 1-1.16-.64.97.97 0 0 1-.1-.4v-.32ZM53.26 23l6.46-15.23h4.36L70.55 23h-3.22l-1.15-2.7h-8.55L56.47 23h-3.2Zm5.83-6.21-.28.64H65a274.4 274.4 0 0 0-3.08-7.17c-.05.02-2.01 4.63-2.82 6.52Zm25.7 1.63s3.04-.88 3.04-5.33c0-3.42-2.34-5.32-6.05-5.32h-8.54V23h3.14v-4.3h4.92l3.18 4.28h3.74l-3.43-4.56Zm-3.01-2.57h-5.4v-5.21h5.4a2.44 2.44 0 0 1 2.71 2.6c0 1.47-.83 2.61-2.71 2.61Zm57.13-2.76c0 4.45-3.04 5.33-3.04 5.33l3.45 4.56h-3.75l-3.19-4.28h-4.91V23h-3.14V7.77h8.54c3.7 0 6.04 1.9 6.04 5.32Zm-11.44 2.76h5.4a2.43 2.43 0 0 0 2.7-2.6 2.44 2.44 0 0 0-2.7-2.61h-5.4v5.21Zm-32.3-5.21H89.8V7.77h13.96v2.87h-5.43V23h-3.14V10.64Zm47.84-2.87h3.16v15.24h-3.16V7.77Zm12.24 0c-.73 1.81-6.46 15.23-6.46 15.23h3.22l1.14-2.7h8.56l1.15 2.7h3.22s-5.77-13.42-6.53-15.23h-4.3Zm-.88 9.66.28-.64c.8-1.9 2.76-6.5 2.81-6.53.06-.02 2.65 6.13 3.1 7.17h-6.19ZM110.91 23h5.21a4.63 4.63 0 0 0 4.62-4.62V7.77h-3.1v10.61a1.5 1.5 0 0 1-1.52 1.51h-5.2a1.5 1.5 0 0 1-1.52-1.51V7.77h-3.1v10.61A4.62 4.62 0 0 0 110.9 23Z" clip-rule="evenodd"/></svg>